<?xml version="1.0" standalone="no"?>
<!DOCTYPE svg PUBLIC "-//W3C//DTD SVG 20010904//EN"
 "http://www.w3.org/TR/2001/REC-SVG-20010904/DTD/svg10.dtd">
<svg version="1.0" xmlns="http://www.w3.org/2000/svg"
 width="227.000000pt" height="227.000000pt" viewBox="0 0 227.000000 227.000000"
 preserveAspectRatio="xMidYMid meet">
<metadata>
Created by potrace 1.11, written by Peter Selinger 2001-2013
</metadata>
<g transform="translate(0.000000,227.000000) scale(0.100000,-0.100000)"
fill="#000000" stroke="none">
<path d="M1088 2264 c-2 -1 -32 -5 -68 -8 -254 -22 -496 -135 -679 -317 -215
-213 -328 -473 -336 -769 -8 -321 103 -605 322 -825 78 -79 87 -87 169 -142
224 -152 484 -217 756 -188 113 12 259 52 357 98 56 26 170 95 189 113 7 8 17
14 21 14 4 0 46 37 92 83 134 130 221 265 278 427 53 152 60 191 65 360 12
387 -168 734 -502 968 -86 60 -305 150 -405 166 -66 11 -254 25 -259 20z"/>
</g>
</svg>
